<?xml version="1.0" encoding="iso-8859-1"?>
<!-- Uploaded to: SVG Repo, www.svgrepo.com, Generator: SVG Repo Mixer Tools -->
<svg fill="#000000" height="800px" width="800px" version="1.1" id="Layer_1" xmlns="http://www.w3.org/2000/svg" xmlns:xlink="http://www.w3.org/1999/xlink" 
	 viewBox="0 0 512 512" xml:space="preserve">
<g>
	<g>
		<path d="M503.83,0H8.17C3.658,0,0,3.658,0,8.17v217.872c0,4.512,3.658,8.17,8.17,8.17s8.17-3.658,8.17-8.17V16.34H495.66v209.702
			c0,4.512,3.658,8.17,8.17,8.17s8.17-3.658,8.17-8.17V8.17C512,3.658,508.342,0,503.83,0z"/>
	</g>
</g>
<g>
	<g>
		<path d="M473.902,35.357c-3.033-3.34-8.201-3.588-11.541-0.553L256,222.267L49.642,34.807c-3.339-3.033-8.507-2.787-11.541,0.553
			c-3.034,3.34-2.787,8.507,0.553,11.541l143.237,130.12l-56.151,51.009c-3.34,3.034-3.587,8.201-0.553,11.541
			c1.612,1.775,3.827,2.677,6.05,2.677c1.96,0,3.926-0.702,5.491-2.123l57.315-52.066l56.464,51.293
			c1.558,1.415,3.525,2.123,5.494,2.123c1.968,0,3.936-0.707,5.494-2.123l56.464-51.294l57.315,52.066
			c1.565,1.422,3.531,2.123,5.491,2.123c2.223,0,4.438-0.902,6.05-2.677c3.034-3.34,2.787-8.507-0.553-11.541l-56.153-51.008
			l143.24-130.123C476.688,43.864,476.936,38.696,473.902,35.357z"/>
	</g>
</g>
<g>
	<g>
		<circle cx="288.681" cy="424.851" r="8.17"/>
	</g>
</g>
<g>
	<g>
		<circle cx="256" cy="424.851" r="8.17"/>
	</g>
</g>
<g>
	<g>
		<circle cx="223.319" cy="424.851" r="8.17"/>
	</g>
</g>
<g>
	<g>
		<path d="M503.83,250.553h-95.931c-3.68,0-6.905,2.46-7.879,6.01l-22.25,81.139H134.232l-22.246-81.139
			c-0.973-3.549-4.198-6.01-7.879-6.01H8.17c-4.512,0-8.17,3.658-8.17,8.17V503.83c0,4.512,3.658,8.17,8.17,8.17h495.66
			c4.512,0,8.17-3.658,8.17-8.17V258.723C512,254.211,508.342,250.553,503.83,250.553z M495.66,495.66H16.34V266.894h81.534
			l22.246,81.139c0.973,3.549,4.198,6.01,7.879,6.01h256c3.68,0,6.905-2.46,7.879-6.01l22.25-81.139h81.53V495.66z"/>
	</g>
</g>
</svg>